<mxfile host="app.diagrams.net" agent="Mozilla/5.0 (Windows NT 10.0; Win64; x64) AppleWebKit/537.36 (KHTML, like Gecko) Chrome/126.0.0.0 Safari/537.36 OPR/112.0.0.0 (Edition std-1)" version="24.7.10">
  <diagram name="PÃ¡gina-1" id="rUtiXRYnszd84-Ho9z62">
    <mxGraphModel grid="1" page="1" gridSize="10" guides="1" tooltips="1" connect="1" arrows="1" fold="1" pageScale="1" pageWidth="827" pageHeight="1169" math="0" shadow="0">
      <root>
        <mxCell id="0" />
        <mxCell id="1" parent="0" />
        <mxCell id="UWbhQLJsjdDMrJpREH_d-2" value="" style="rounded=0;whiteSpace=wrap;html=1;" vertex="1" parent="1">
          <mxGeometry x="150" y="170" width="460" height="300" as="geometry" />
        </mxCell>
        <mxCell id="UWbhQLJsjdDMrJpREH_d-4" style="edgeStyle=none;rounded=0;orthogonalLoop=1;jettySize=auto;html=1;exitX=0.5;exitY=0.5;exitDx=0;exitDy=0;exitPerimeter=0;entryX=0;entryY=0.5;entryDx=0;entryDy=0;" edge="1" parent="1" source="UWbhQLJsjdDMrJpREH_d-1" target="UWbhQLJsjdDMrJpREH_d-3">
          <mxGeometry relative="1" as="geometry" />
        </mxCell>
        <mxCell id="UWbhQLJsjdDMrJpREH_d-6" style="edgeStyle=none;rounded=0;orthogonalLoop=1;jettySize=auto;html=1;exitX=0.5;exitY=0.5;exitDx=0;exitDy=0;exitPerimeter=0;entryX=0;entryY=0.5;entryDx=0;entryDy=0;" edge="1" parent="1" source="UWbhQLJsjdDMrJpREH_d-1" target="UWbhQLJsjdDMrJpREH_d-5">
          <mxGeometry relative="1" as="geometry" />
        </mxCell>
        <mxCell id="UWbhQLJsjdDMrJpREH_d-1" value="Usuario Admin" style="shape=umlActor;verticalLabelPosition=bottom;verticalAlign=top;html=1;outlineConnect=0;" vertex="1" parent="1">
          <mxGeometry x="90" y="290" width="30" height="60" as="geometry" />
        </mxCell>
        <mxCell id="UWbhQLJsjdDMrJpREH_d-8" style="edgeStyle=none;rounded=0;orthogonalLoop=1;jettySize=auto;html=1;exitX=1;exitY=0.5;exitDx=0;exitDy=0;entryX=0;entryY=0;entryDx=0;entryDy=0;" edge="1" parent="1" source="UWbhQLJsjdDMrJpREH_d-3" target="UWbhQLJsjdDMrJpREH_d-7">
          <mxGeometry relative="1" as="geometry" />
        </mxCell>
        <mxCell id="UWbhQLJsjdDMrJpREH_d-10" value="&amp;lt;&amp;lt;include&amp;gt;&amp;gt;" style="edgeLabel;html=1;align=center;verticalAlign=middle;resizable=0;points=[];" connectable="0" vertex="1" parent="UWbhQLJsjdDMrJpREH_d-8">
          <mxGeometry x="-0.1146" relative="1" as="geometry">
            <mxPoint as="offset" />
          </mxGeometry>
        </mxCell>
        <mxCell id="UWbhQLJsjdDMrJpREH_d-3" value="Suspender cuenta" style="ellipse;whiteSpace=wrap;html=1;" vertex="1" parent="1">
          <mxGeometry x="220" y="200" width="120" height="80" as="geometry" />
        </mxCell>
        <mxCell id="UWbhQLJsjdDMrJpREH_d-9" style="edgeStyle=none;rounded=0;orthogonalLoop=1;jettySize=auto;html=1;exitX=1;exitY=0.5;exitDx=0;exitDy=0;entryX=0;entryY=1;entryDx=0;entryDy=0;" edge="1" parent="1" source="UWbhQLJsjdDMrJpREH_d-5" target="UWbhQLJsjdDMrJpREH_d-7">
          <mxGeometry relative="1" as="geometry" />
        </mxCell>
        <mxCell id="UWbhQLJsjdDMrJpREH_d-11" value="&amp;lt;&amp;lt;include&amp;gt;&amp;gt;" style="edgeLabel;html=1;align=center;verticalAlign=middle;resizable=0;points=[];" connectable="0" vertex="1" parent="UWbhQLJsjdDMrJpREH_d-9">
          <mxGeometry x="-0.0823" relative="1" as="geometry">
            <mxPoint as="offset" />
          </mxGeometry>
        </mxCell>
        <mxCell id="UWbhQLJsjdDMrJpREH_d-5" value="Eliminar cuenta" style="ellipse;whiteSpace=wrap;html=1;" vertex="1" parent="1">
          <mxGeometry x="220" y="350" width="120" height="80" as="geometry" />
        </mxCell>
        <mxCell id="UWbhQLJsjdDMrJpREH_d-7" value="Revisar incumplimiento de normas" style="ellipse;whiteSpace=wrap;html=1;" vertex="1" parent="1">
          <mxGeometry x="440" y="280" width="120" height="80" as="geometry" />
        </mxCell>
      </root>
    </mxGraphModel>
  </diagram>
</mxfile>
